<?xml version="1.0" encoding="UTF-8"?>
<svg xmlns="http://www.w3.org/2000/svg" width="512" height="512" viewBox="0 0 512 512">
  <path d="M 112 314 L 112 334 L 121 337 L 121 318 Z" fill="#1a1a19" fill-rule="evenodd"/>
  <path d="M 346 243 L 346 254 L 356 252 Z" fill="#1a1a19" fill-rule="evenodd"/>
  <path d="M 0 0 L 0 511 L 511 511 L 511 0 Z M 115 352 L 118 351 L 132 354 L 158 355 L 160 382 L 139 383 L 123 381 L 121 379 L 121 357 L 116 355 Z M 98 345 L 112 351 L 112 373 L 120 376 L 120 380 L 105 376 L 97 369 Z M 97 306 L 100 305 L 106 309 L 127 314 L 171 315 L 172 318 L 166 332 L 163 345 L 160 347 L 133 346 L 113 342 L 103 337 L 97 331 Z M 212 251 L 211 255 L 188 286 L 177 306 L 153 308 L 126 306 L 109 302 L 103 299 L 96 292 L 96 266 L 110 271 L 110 290 L 118 293 L 119 272 L 158 274 L 134 272 L 108 266 L 102 263 L 99 258 L 110 252 L 123 248 L 150 244 L 185 244 L 204 247 Z M 318 228 L 326 227 L 345 233 L 368 247 L 376 254 L 376 256 L 371 260 L 356 265 L 339 263 L 331 258 L 324 250 L 318 236 Z M 233 179 L 233 204 L 238 226 L 220 244 L 182 237 L 152 237 L 123 241 L 105 247 L 102 246 L 102 244 L 117 229 L 127 222 L 145 215 L 160 214 L 144 206 L 116 203 L 120 197 L 138 185 L 160 176 L 187 171 L 213 172 L 231 177 Z M 309 138 L 316 141 L 332 160 L 342 180 L 341 184 L 329 183 L 322 174 L 299 153 Z M 434 266 L 431 278 L 424 293 L 411 306 L 387 315 L 338 325 L 321 331 L 306 341 L 328 335 L 334 336 L 329 363 L 327 387 L 313 387 L 284 383 L 237 371 L 235 367 L 250 344 L 226 354 L 225 351 L 241 334 L 262 317 L 282 305 L 300 313 L 317 313 L 304 311 L 290 304 L 280 294 L 276 286 L 276 279 L 291 287 L 312 288 L 336 283 L 384 264 L 388 264 L 406 273 L 412 288 L 420 272 L 398 260 L 382 233 L 366 219 L 351 211 L 339 207 L 310 203 L 294 178 L 280 164 L 265 154 L 257 171 L 255 192 L 259 214 L 267 233 L 254 244 L 221 279 L 207 298 L 190 328 L 203 312 L 232 284 L 254 268 L 256 268 L 257 271 L 234 298 L 207 335 L 189 366 L 180 391 L 175 393 L 167 381 L 166 360 L 174 329 L 185 305 L 215 261 L 248 227 L 241 203 L 241 178 L 246 159 L 253 146 L 261 136 L 267 137 L 294 156 L 313 175 L 322 188 L 341 190 L 354 194 L 371 202 L 381 209 L 396 224 L 405 238 L 410 250 Z" fill="#1a1a19" fill-rule="evenodd"/>
  <path d="M 98 344 L 98 369 L 105 375 L 129 381 L 160 382 L 158 374 L 158 356 L 119 353 L 108 350 Z M 112 353 L 118 354 L 122 357 L 121 377 L 115 376 L 111 373 Z" fill="#d6813b" fill-rule="evenodd"/>
  <path d="M 98 305 L 98 331 L 103 336 L 126 344 L 146 346 L 162 345 L 165 332 L 172 316 L 127 315 L 106 310 Z M 112 314 L 122 317 L 121 338 L 111 334 Z" fill="#d6813b" fill-rule="evenodd"/>
  <path d="M 315 386 L 321 386 Z" fill="#939293" fill-rule="evenodd"/>
  <path d="M 305 385 L 309 385 Z" fill="#939293" fill-rule="evenodd"/>
  <path d="M 298 384 L 300 384 Z" fill="#939293" fill-rule="evenodd"/>
  <path d="M 291 383 L 293 383 Z" fill="#939293" fill-rule="evenodd"/>
  <path d="M 285 382 L 287 382 Z" fill="#939293" fill-rule="evenodd"/>
  <path d="M 327 379 L 327 384 Z" fill="#939293" fill-rule="evenodd"/>
  <path d="M 328 366 L 328 370 Z" fill="#939293" fill-rule="evenodd"/>
  <path d="M 167 362 L 167 375 Z" fill="#939293" fill-rule="evenodd"/>
  <path d="M 329 358 L 329 360 Z" fill="#939293" fill-rule="evenodd"/>
  <path d="M 168 355 L 168 357 Z" fill="#939293" fill-rule="evenodd"/>
  <path d="M 330 351 L 330 353 Z" fill="#939293" fill-rule="evenodd"/>
  <path d="M 229 352 L 227 350 L 225 353 Z" fill="#939293" fill-rule="evenodd"/>
  <path d="M 331 345 L 331 348 Z" fill="#939293" fill-rule="evenodd"/>
  <path d="M 251 343 L 248 344 L 250 345 Z" fill="#939293" fill-rule="evenodd"/>
  <path d="M 332 340 L 332 342 Z" fill="#939293" fill-rule="evenodd"/>
  <path d="M 311 341 L 309 341 L 308 338 L 305 342 Z" fill="#939293" fill-rule="evenodd"/>
  <path d="M 238 338 L 231 345 Z" fill="#939293" fill-rule="evenodd"/>
  <path d="M 329 336 L 333 337 Z" fill="#939293" fill-rule="evenodd"/>
  <path d="M 249 328 L 245 332 Z" fill="#939293" fill-rule="evenodd"/>
  <path d="M 350 321 L 352 321 Z" fill="#939293" fill-rule="evenodd"/>
  <path d="M 359 319 L 361 319 Z" fill="#939293" fill-rule="evenodd"/>
  <path d="M 197 321 L 194 319 L 188 331 L 191 328 L 191 325 Z" fill="#939293" fill-rule="evenodd"/>
  <path d="M 365 318 L 367 318 Z" fill="#939293" fill-rule="evenodd"/>
  <path d="M 302 314 L 305 314 Z" fill="#939293" fill-rule="evenodd"/>
  <path d="M 203 314 L 200 317 Z" fill="#939293" fill-rule="evenodd"/>
  <path d="M 319 312 L 311 314 Z" fill="#939293" fill-rule="evenodd"/>
  <path d="M 282 306 L 285 307 Z" fill="#939293" fill-rule="evenodd"/>
  <path d="M 163 306 L 170 306 Z" fill="#939293" fill-rule="evenodd"/>
  <path d="M 136 306 L 141 306 Z" fill="#939293" fill-rule="evenodd"/>
  <path d="M 128 305 L 130 305 Z" fill="#939293" fill-rule="evenodd"/>
  <path d="M 122 304 L 124 304 Z" fill="#939293" fill-rule="evenodd"/>
  <path d="M 282 295 L 284 297 Z" fill="#939293" fill-rule="evenodd"/>
  <path d="M 236 295 L 234 297 Z" fill="#939293" fill-rule="evenodd"/>
  <path d="M 221 295 L 206 310 Z" fill="#939293" fill-rule="evenodd"/>
  <path d="M 240 290 L 238 292 Z" fill="#939293" fill-rule="evenodd"/>
  <path d="M 297 289 L 309 289 Z" fill="#939293" fill-rule="evenodd"/>
  <path d="M 315 288 L 318 288 Z" fill="#939293" fill-rule="evenodd"/>
  <path d="M 410 287 L 411 289 L 414 287 Z" fill="#939293" fill-rule="evenodd"/>
  <path d="M 230 287 L 228 289 Z" fill="#939293" fill-rule="evenodd"/>
  <path d="M 236 282 L 234 284 Z" fill="#939293" fill-rule="evenodd"/>
  <path d="M 277 278 L 276 280 Z" fill="#939293" fill-rule="evenodd"/>
  <path d="M 250 278 L 247 281 Z" fill="#939293" fill-rule="evenodd"/>
  <path d="M 241 278 L 239 280 Z" fill="#939293" fill-rule="evenodd"/>
  <path d="M 407 276 L 407 279 Z" fill="#939293" fill-rule="evenodd"/>
  <path d="M 224 275 L 222 277 Z" fill="#939293" fill-rule="evenodd"/>
  <path d="M 161 274 L 165 274 Z" fill="#939293" fill-rule="evenodd"/>
  <path d="M 128 274 L 132 274 Z" fill="#939293" fill-rule="evenodd"/>
  <path d="M 152 273 L 156 273 Z" fill="#939293" fill-rule="evenodd"/>
  <path d="M 117 274 L 119 275 L 122 273 Z" fill="#939293" fill-rule="evenodd"/>
  <path d="M 143 272 L 146 272 Z" fill="#939293" fill-rule="evenodd"/>
  <path d="M 111 272 L 115 273 Z" fill="#939293" fill-rule="evenodd"/>
  <path d="M 420 271 L 420 274 Z" fill="#939293" fill-rule="evenodd"/>
  <path d="M 136 271 L 138 271 Z" fill="#939293" fill-rule="evenodd"/>
  <path d="M 129 270 L 131 270 Z" fill="#939293" fill-rule="evenodd"/>
  <path d="M 255 269 L 250 272 L 252 275 L 255 272 Z" fill="#939293" fill-rule="evenodd"/>
  <path d="M 124 269 L 126 269 Z" fill="#939293" fill-rule="evenodd"/>
  <path d="M 230 268 L 227 271 Z" fill="#939293" fill-rule="evenodd"/>
  <path d="M 119 268 L 121 268 Z" fill="#939293" fill-rule="evenodd"/>
  <path d="M 432 265 L 433 267 Z" fill="#939293" fill-rule="evenodd"/>
  <path d="M 385 265 L 388 265 Z" fill="#939293" fill-rule="evenodd"/>
  <path d="M 348 264 L 354 264 Z" fill="#939293" fill-rule="evenodd"/>
  <path d="M 215 263 L 213 265 Z" fill="#939293" fill-rule="evenodd"/>
  <path d="M 206 260 L 204 262 Z" fill="#939293" fill-rule="evenodd"/>
  <path d="M 220 257 L 218 259 Z" fill="#939293" fill-rule="evenodd"/>
  <path d="M 396 256 L 397 258 Z" fill="#939293" fill-rule="evenodd"/>
  <path d="M 242 255 L 234 263 Z" fill="#939293" fill-rule="evenodd"/>
  <path d="M 374 253 L 374 257 L 376 255 Z" fill="#939293" fill-rule="evenodd"/>
  <path d="M 356 250 L 356 253 Z" fill="#939293" fill-rule="evenodd"/>
  <path d="M 369 249 L 371 251 Z" fill="#939293" fill-rule="evenodd"/>
  <path d="M 344 248 L 344 253 L 346 255 L 344 253 Z" fill="#939293" fill-rule="evenodd"/>
  <path d="M 129 248 L 131 248 Z" fill="#939293" fill-rule="evenodd"/>
  <path d="M 196 247 L 198 247 Z" fill="#939293" fill-rule="evenodd"/>
  <path d="M 135 247 L 137 247 Z" fill="#939293" fill-rule="evenodd"/>
  <path d="M 230 246 L 223 253 Z" fill="#939293" fill-rule="evenodd"/>
  <path d="M 189 246 L 192 246 Z" fill="#939293" fill-rule="evenodd"/>
  <path d="M 142 246 L 146 246 Z" fill="#939293" fill-rule="evenodd"/>
  <path d="M 153 245 L 182 245 Z" fill="#939293" fill-rule="evenodd"/>
  <path d="M 350 244 L 353 247 Z" fill="#939293" fill-rule="evenodd"/>
  <path d="M 253 244 L 246 251 Z" fill="#939293" fill-rule="evenodd"/>
  <path d="M 345 244 L 348 243 Z" fill="#939293" fill-rule="evenodd"/>
  <path d="M 199 239 L 201 239 Z" fill="#939293" fill-rule="evenodd"/>
  <path d="M 129 239 L 131 239 Z" fill="#939293" fill-rule="evenodd"/>
  <path d="M 108 239 L 104 243 L 104 246 L 108 245 L 105 244 Z" fill="#939293" fill-rule="evenodd"/>
  <path d="M 225 238 L 219 244 Z" fill="#939293" fill-rule="evenodd"/>
  <path d="M 193 238 L 196 238 Z" fill="#939293" fill-rule="evenodd"/>
  <path d="M 135 238 L 138 238 Z" fill="#939293" fill-rule="evenodd"/>
  <path d="M 261 237 L 259 239 Z" fill="#939293" fill-rule="evenodd"/>
  <path d="M 185 237 L 188 237 Z" fill="#939293" fill-rule="evenodd"/>
  <path d="M 143 237 L 147 237 Z" fill="#939293" fill-rule="evenodd"/>
  <path d="M 157 236 L 177 236 Z" fill="#939293" fill-rule="evenodd"/>
  <path d="M 384 235 L 386 237 Z" fill="#939293" fill-rule="evenodd"/>
  <path d="M 266 232 L 265 234 Z" fill="#939293" fill-rule="evenodd"/>
  <path d="M 115 232 L 111 236 Z" fill="#939293" fill-rule="evenodd"/>
  <path d="M 324 228 L 319 228 L 319 234 L 319 229 Z" fill="#939293" fill-rule="evenodd"/>
  <path d="M 120 228 L 118 230 Z" fill="#939293" fill-rule="evenodd"/>
  <path d="M 249 226 L 243 233 Z" fill="#939293" fill-rule="evenodd"/>
  <path d="M 375 225 L 381 231 Z" fill="#939293" fill-rule="evenodd"/>
  <path d="M 237 224 L 236 227 Z" fill="#939293" fill-rule="evenodd"/>
  <path d="M 392 221 L 394 223 Z" fill="#939293" fill-rule="evenodd"/>
  <path d="M 147 216 L 149 216 Z" fill="#939293" fill-rule="evenodd"/>
  <path d="M 382 211 L 385 214 Z" fill="#939293" fill-rule="evenodd"/>
  <path d="M 233 206 L 233 208 Z" fill="#939293" fill-rule="evenodd"/>
  <path d="M 332 205 L 334 205 Z" fill="#939293" fill-rule="evenodd"/>
  <path d="M 243 205 L 243 207 Z" fill="#939293" fill-rule="evenodd"/>
  <path d="M 326 204 L 328 204 Z" fill="#939293" fill-rule="evenodd"/>
  <path d="M 136 204 L 138 204 Z" fill="#939293" fill-rule="evenodd"/>
  <path d="M 318 203 L 321 203 Z" fill="#939293" fill-rule="evenodd"/>
  <path d="M 115 203 L 131 203 L 119 203 L 118 200 Z" fill="#939293" fill-rule="evenodd"/>
  <path d="M 255 196 L 255 199 Z" fill="#939293" fill-rule="evenodd"/>
  <path d="M 232 196 L 232 200 Z" fill="#939293" fill-rule="evenodd"/>
  <path d="M 242 195 L 242 201 Z" fill="#939293" fill-rule="evenodd"/>
  <path d="M 124 195 L 122 197 Z" fill="#939293" fill-rule="evenodd"/>
  <path d="M 338 191 L 340 191 Z" fill="#939293" fill-rule="evenodd"/>
  <path d="M 331 190 L 333 190 Z" fill="#939293" fill-rule="evenodd"/>
  <path d="M 321 188 L 326 189 Z" fill="#939293" fill-rule="evenodd"/>
  <path d="M 331 182 L 333 182 Z" fill="#939293" fill-rule="evenodd"/>
  <path d="M 341 181 L 340 183 L 337 183 L 341 183 Z" fill="#939293" fill-rule="evenodd"/>
  <path d="M 242 179 L 242 184 Z" fill="#939293" fill-rule="evenodd"/>
  <path d="M 255 177 L 255 180 Z" fill="#939293" fill-rule="evenodd"/>
  <path d="M 324 176 L 326 178 Z" fill="#939293" fill-rule="evenodd"/>
  <path d="M 292 175 L 294 177 Z" fill="#939293" fill-rule="evenodd"/>
  <path d="M 208 173 L 211 173 Z" fill="#939293" fill-rule="evenodd"/>
  <path d="M 180 173 L 183 173 Z" fill="#939293" fill-rule="evenodd"/>
  <path d="M 192 172 L 198 172 Z" fill="#939293" fill-rule="evenodd"/>
  <path d="M 306 169 L 311 174 Z" fill="#939293" fill-rule="evenodd"/>
  <path d="M 281 164 L 286 169 Z" fill="#939293" fill-rule="evenodd"/>
  <path d="M 309 160 L 321 172 Z" fill="#939293" fill-rule="evenodd"/>
  <path d="M 296 159 L 303 166 Z" fill="#939293" fill-rule="evenodd"/>
  <path d="M 303 155 L 305 157 Z" fill="#939293" fill-rule="evenodd"/>
  <path d="M 264 154 L 268 155 L 265 153 Z" fill="#939293" fill-rule="evenodd"/>
  <path d="M 321 148 L 324 151 Z" fill="#939293" fill-rule="evenodd"/>
  <path d="M 303 148 L 299 152 L 300 153 Z" fill="#939293" fill-rule="evenodd"/>
  <path d="M 309 139 L 313 140 L 311 138 Z" fill="#939293" fill-rule="evenodd"/>
  <path d="M 263 136 L 260 138 Z" fill="#939293" fill-rule="evenodd"/>
  <path d="M 212 252 L 195 247 L 168 245 L 138 247 L 112 253 L 101 258 L 100 260 L 117 267 L 146 271 L 147 274 L 128 275 L 115 273 L 120 275 L 120 293 L 116 294 L 109 291 L 109 272 L 97 267 L 97 291 L 106 299 L 119 303 L 142 306 L 175 305 L 197 270 Z" fill="#fcfcfc" fill-rule="evenodd"/>
  <path d="M 319 229 L 324 247 L 332 257 L 341 262 L 358 263 L 375 255 L 355 240 L 341 233 L 327 229 Z M 344 243 L 350 243 L 357 250 L 357 253 L 351 256 L 346 256 L 343 253 Z" fill="#fcfcfc" fill-rule="evenodd"/>
  <path d="M 231 179 L 215 174 L 184 173 L 159 178 L 134 189 L 116 203 L 131 202 L 143 204 L 159 211 L 161 215 L 140 218 L 125 225 L 110 237 L 102 246 L 124 239 L 157 235 L 196 237 L 219 243 L 236 226 L 231 200 Z" fill="#fcfcfc" fill-rule="evenodd"/>
  <path d="M 310 139 L 300 152 L 309 159 L 329 181 L 341 182 L 334 166 L 326 154 L 314 141 Z" fill="#fcfcfc" fill-rule="evenodd"/>
  <path d="M 432 266 L 408 250 L 395 225 L 380 210 L 355 196 L 337 191 L 322 190 L 305 168 L 293 157 L 269 140 L 262 137 L 248 159 L 243 176 L 243 204 L 249 228 L 216 262 L 189 301 L 179 321 L 170 347 L 168 358 L 169 382 L 173 389 L 177 393 L 184 373 L 204 337 L 233 297 L 258 268 L 246 275 L 227 290 L 195 324 L 193 324 L 192 321 L 204 300 L 233 263 L 265 233 L 257 213 L 254 199 L 255 172 L 264 153 L 267 153 L 276 159 L 295 177 L 311 202 L 328 203 L 345 207 L 370 220 L 387 237 L 397 257 L 420 270 L 421 274 L 413 289 L 409 287 L 406 275 L 387 265 L 356 278 L 318 289 L 292 289 L 283 285 L 277 279 L 278 287 L 287 300 L 298 307 L 315 311 L 316 314 L 297 314 L 283 306 L 263 318 L 244 333 L 224 354 L 242 345 L 249 345 L 249 348 L 241 359 L 237 369 L 282 381 L 326 386 L 327 366 L 332 336 L 311 342 L 307 342 L 306 339 L 312 334 L 332 325 L 359 318 L 380 315 L 408 306 L 414 302 L 424 290 L 430 276 Z" fill="#fcfcfc" fill-rule="evenodd"/>
</svg>